<svg id="Group_10002" data-name="Group 10002" xmlns="http://www.w3.org/2000/svg" xmlns:xlink="http://www.w3.org/1999/xlink" width="573.5" height="110.344" viewBox="0 0 573.5 110.344">
  <defs>
    <clipPath id="clip-path">
      <rect id="Rectangle_15" data-name="Rectangle 15" width="573.5" height="110.344" fill="none"/>
    </clipPath>
  </defs>
  <rect id="Rectangle_2" data-name="Rectangle 2" width="14.233" height="14.232" transform="translate(26.901)" fill="#1c75ba"/>
  <rect id="Rectangle_3" data-name="Rectangle 3" width="11.274" height="9.916" transform="translate(54.781 0.041)" fill="#1c75ba"/>
  <rect id="Rectangle_4" data-name="Rectangle 4" width="12.101" height="12.101" transform="translate(18.356 21.441)" fill="#666"/>
  <rect id="Rectangle_5" data-name="Rectangle 5" width="7.597" height="7.597" transform="translate(7.503 42.669)" fill="#666"/>
  <rect id="Rectangle_6" data-name="Rectangle 6" width="7.597" height="7.596" transform="translate(0 11.38)" fill="#1c75ba"/>
  <rect id="Rectangle_7" data-name="Rectangle 7" width="7.597" height="7.597" transform="translate(42.059 28.156)" fill="#1c75ba"/>
  <rect id="Rectangle_8" data-name="Rectangle 8" width="11.427" height="11.427" transform="translate(23.756 41.192)" fill="#1c75ba"/>
  <g id="Group_3" data-name="Group 3">
    <g id="Group_2" data-name="Group 2" clip-path="url(#clip-path)">
      <path id="Path_2" data-name="Path 2" d="M73.486,82.457h29.941c23.382-2.623,37.555-14.778,38.259-40.846C141.562,15.4,126.6,2.293,99.368.023H89.106V9.914H99.737q28.369,3.3,30.866,30.775c1.154,16.13-12.651,31.872-28.1,31.872H84.766V13.936H73.492V82.451Z" transform="translate(-18.676 -0.006)" fill="#1c75ba" fill-rule="evenodd"/>
      <rect id="Rectangle_9" data-name="Rectangle 9" width="10.719" height="10.727" transform="translate(129.487 10.076)" fill="#666"/>
      <rect id="Rectangle_10" data-name="Rectangle 10" width="10.719" height="56.419" transform="translate(129.487 25.847)" fill="#1c75ba"/>
      <path id="Path_3" data-name="Path 3" d="M255.252,35.526V85.9c1.476,32.969-35.09,44.3-54.711,21.981l6.654-6.228c8.545,11.133,39.113,13.385,36.6-17.216-4.492,4.881-8.961,8.277-18.3,8.607-13.524.2-29.045-8.347-28.834-29.492.017-16.473,12.171-28.616,27.633-28.581,7.638-.058,14.2,2.264,19.872,9.531V35.573q5.545-.025,11.088-.047Zm-29.2,8.568c9.8,0,17.747,9.032,17.747,20.17s-7.948,20.171-17.747,20.171S208.3,75.4,208.3,64.264s7.948-20.17,17.747-20.17" transform="translate(-49.981 -9.121)" fill="#1c75ba" fill-rule="evenodd"/>
      <rect id="Rectangle_11" data-name="Rectangle 11" width="10.719" height="10.727" transform="translate(212.469 10.076)" fill="#666"/>
      <rect id="Rectangle_12" data-name="Rectangle 12" width="10.719" height="56.419" transform="translate(212.469 25.847)" fill="#1c75ba"/>
      <path id="Path_4" data-name="Path 4" d="M307.184,82.152H318.09l4.8-51.839,29.39,43.963,29.2-44.142,6.472,52.019h10.906L388.878.275,352.652,57.059,315.87.64Z" transform="translate(-78.07 -0.072)" fill="#1c75ba" fill-rule="evenodd"/>
      <path id="Path_5" data-name="Path 5" d="M492.276,89.336H481.37V80.178c-3.344,5.8-8.183,10.349-19.779,10.622-16.634-.122-29.759-10.564-29.759-31.506-.058-18.255,13.951-31.164,30.129-30.775,9.465-.047,13.629,3.86,19.41,10.257V29.8h10.906V89.336ZM462.422,37.863c10.46,0,18.948,9.844,18.948,21.981s-8.487,21.982-18.948,21.982-18.948-9.844-18.948-21.982,8.487-21.981,18.948-21.981" transform="translate(-109.748 -7.437)" fill="#1c75ba" fill-rule="evenodd"/>
      <path id="Path_6" data-name="Path 6" d="M521.541,29.961v59.35h11.087V53.226c.041-9.119,8.019-15.5,16.453-15.567,10.309.5,14.25,6.837,14.97,16.119V89.311h10.537V50.66c1.1-25.22-31.645-29.161-41.772-10.988V29.967c-3.761.122-7.515-.122-11.275,0Z" transform="translate(-132.548 -7.411)" fill="#1c75ba" fill-rule="evenodd"/>
      <path id="Path_7" data-name="Path 7" d="M607.24,84.478h10.906V34.659h12.569V24.948H618.333V9.2H607.246V24.763h-9.611v9.71h9.611V84.478Z" transform="translate(-151.887 -2.399)" fill="#1c75ba" fill-rule="evenodd"/>
      <path id="Path_8" data-name="Path 8" d="M646.445,89.513h11.087V55.807c0-9.559,8.75-17.709,20.886-17.036V27.783c-7.239.58-14.326,3.447-21.073,11.359V29.252H646.439V89.519Z" transform="translate(-164.29 -7.247)" fill="#1c75ba" fill-rule="evenodd"/>
      <path id="Path_9" data-name="Path 9" d="M748.323,89.336H737.417V80.178c-3.344,5.8-8.183,10.349-19.779,10.622-16.634-.122-29.76-10.564-29.76-31.506-.058-18.255,13.951-31.164,30.129-30.775,9.465-.047,13.629,3.86,19.41,10.257V29.8h10.906V89.336ZM718.469,37.863c10.461,0,18.947,9.844,18.947,21.981s-8.487,21.982-18.947,21.982-18.948-9.844-18.948-21.982,8.487-21.981,18.948-21.981" transform="translate(-174.822 -7.437)" fill="#1c75ba" fill-rule="evenodd"/>
      <rect id="Rectangle_13" data-name="Rectangle 13" width="3.42" height="16.862" transform="translate(213.287 91.531)" fill="#1c75ba"/>
      <path id="Path_10" data-name="Path 10" d="M305.756,124.872a7.469,7.469,0,0,1,3.151,2.959,8.734,8.734,0,0,1,1.111,4.457,8.6,8.6,0,0,1-1.111,4.433,7.512,7.512,0,0,1-3.151,2.935,10.276,10.276,0,0,1-4.727,1.038h-5.961V123.833h5.961a10.276,10.276,0,0,1,4.727,1.039m-.7,11.5a5.484,5.484,0,0,0,1.466-4.082,5.126,5.126,0,0,0-5.618-5.6h-2.419v11.136h2.419a5.656,5.656,0,0,0,4.153-1.45" transform="translate(-74.991 -32.301)" fill="#1c75ba"/>
      <path id="Path_11" data-name="Path 11" d="M321.973,126.553v4.227h5.741v2.682h-5.741v4.469h6.473v2.754h-9.893V123.8h9.893v2.754Z" transform="translate(-80.959 -32.293)" fill="#1c75ba"/>
      <path id="Path_12" data-name="Path 12" d="M346.074,137.472h-6.791l-1.124,3.213h-3.591L340.7,123.8h3.982l6.132,16.885H347.2Zm-.929-2.705-2.467-7.054-2.467,7.054Z" transform="translate(-85.029 -32.293)" fill="#1c75ba"/>
      <rect id="Rectangle_14" data-name="Rectangle 14" width="3.42" height="16.862" transform="translate(281.706 91.534)" fill="#1c75ba"/>
      <path id="Path_13" data-name="Path 13" d="M401.385,140.69h-3.42l-7.743-11.571V140.69H386.8V123.8h3.421l7.743,11.6V123.8h3.42Z" transform="translate(-98.304 -32.294)" fill="#1c75ba"/>
      <path id="Path_14" data-name="Path 14" d="M425.457,140.69h-3.421l-7.743-11.571V140.69h-3.42V123.8h3.42l7.743,11.6V123.8h3.421Z" transform="translate(-104.422 -32.294)" fill="#1c75ba"/>
      <path id="Path_15" data-name="Path 15" d="M438.181,139.671a8.341,8.341,0,0,1-3.176-3.08,9.011,9.011,0,0,1,0-8.89,8.352,8.352,0,0,1,3.176-3.08,9.28,9.28,0,0,1,8.806,0,8.293,8.293,0,0,1,3.152,3.08,9.092,9.092,0,0,1,0,8.89,8.257,8.257,0,0,1-3.164,3.08,9.251,9.251,0,0,1-8.794,0m7.108-2.6a4.739,4.739,0,0,0,1.833-1.969,6.4,6.4,0,0,0,.659-2.971,6.331,6.331,0,0,0-.659-2.959,4.675,4.675,0,0,0-1.833-1.945,5.33,5.33,0,0,0-2.711-.676,5.394,5.394,0,0,0-2.724.676,4.651,4.651,0,0,0-1.845,1.945,6.324,6.324,0,0,0-.66,2.959,6.394,6.394,0,0,0,.66,2.971,4.714,4.714,0,0,0,1.845,1.969,5.318,5.318,0,0,0,2.724.688,5.254,5.254,0,0,0,2.711-.688" transform="translate(-110.257 -32.217)" fill="#1c75ba"/>
      <path id="Path_16" data-name="Path 16" d="M475.516,123.837,469.262,140.7h-4.153l-6.253-16.862h3.664l4.691,13.407,4.665-13.407Z" transform="translate(-116.617 -32.302)" fill="#1c75ba"/>
      <path id="Path_17" data-name="Path 17" d="M494.041,137.476H487.25l-1.124,3.213h-3.591l6.132-16.885h3.982l6.131,16.885h-3.616Zm-.929-2.705-2.467-7.054-2.467,7.054Z" transform="translate(-122.635 -32.294)" fill="#1c75ba"/>
      <path id="Path_18" data-name="Path 18" d="M518.689,123.837v2.73h-4.544V140.7h-3.42V126.567h-4.544v-2.73Z" transform="translate(-128.644 -32.302)" fill="#1c75ba"/>
      <path id="Path_19" data-name="Path 19" d="M529.711,126.558v4.227h5.74v2.682h-5.74v4.469h6.473v2.754h-9.894V123.8h9.894v2.754Z" transform="translate(-133.755 -32.294)" fill="#1c75ba"/>
      <path id="Path_20" data-name="Path 20" d="M574.12,128.828a3.982,3.982,0,0,0-1.612-1.618,4.952,4.952,0,0,0-2.394-.556,5.283,5.283,0,0,0-2.688.676,4.7,4.7,0,0,0-1.832,1.932,6.752,6.752,0,0,0,.013,5.847,4.726,4.726,0,0,0,1.868,1.932,5.565,5.565,0,0,0,2.785.676,4.6,4.6,0,0,0,4.837-3.889h-5.864v-2.584h9.235v2.946A7.894,7.894,0,0,1,577,137.452a8.24,8.24,0,0,1-2.895,2.4,8.59,8.59,0,0,1-3.97.906,9.066,9.066,0,0,1-4.458-1.1,8.039,8.039,0,0,1-3.128-3.056,9.293,9.293,0,0,1,0-8.9,8.027,8.027,0,0,1,3.128-3.068,9.614,9.614,0,0,1,9.441.29,7.1,7.1,0,0,1,2.93,3.9Z" transform="translate(-142.682 -32.224)" fill="#1c75ba"/>
      <path id="Path_21" data-name="Path 21" d="M596.477,140.694l-3.762-6.57H591.1v6.57h-3.42V123.832h6.4a7.554,7.554,0,0,1,3.371.688,4.846,4.846,0,0,1,2.088,1.86,4.98,4.98,0,0,1-3.188,7.477l4.08,6.836Zm-5.374-9.107h2.858a2.871,2.871,0,0,0,2.076-.665,2.454,2.454,0,0,0,.684-1.848,2.343,2.343,0,0,0-.684-1.8,2.945,2.945,0,0,0-2.076-.64H591.1Z" transform="translate(-149.358 -32.301)" fill="#1c75ba"/>
      <path id="Path_22" data-name="Path 22" d="M611.913,139.666a8.342,8.342,0,0,1-3.176-3.08,9.012,9.012,0,0,1,0-8.89,8.353,8.353,0,0,1,3.176-3.08,9.28,9.28,0,0,1,8.806,0,8.293,8.293,0,0,1,3.152,3.08,9.092,9.092,0,0,1,0,8.89,8.255,8.255,0,0,1-3.164,3.08,9.25,9.25,0,0,1-8.794,0m7.108-2.6a4.739,4.739,0,0,0,1.833-1.969,6.4,6.4,0,0,0,.659-2.971,6.332,6.332,0,0,0-.659-2.959,4.675,4.675,0,0,0-1.833-1.945,5.328,5.328,0,0,0-2.711-.676,5.394,5.394,0,0,0-2.724.676,4.651,4.651,0,0,0-1.845,1.945,6.324,6.324,0,0,0-.66,2.959,6.393,6.393,0,0,0,.66,2.971,4.714,4.714,0,0,0,1.845,1.969,5.318,5.318,0,0,0,2.724.688,5.254,5.254,0,0,0,2.711-.688" transform="translate(-154.411 -32.216)" fill="#1c75ba"/>
      <path id="Path_23" data-name="Path 23" d="M656.788,123.832l-4.764,16.862h-4.03l-3.2-12.006-3.347,12.006-4.006.024-4.593-16.885h3.664l3.005,13.093,3.468-13.093h3.81l3.274,13.02,3.03-13.02Z" transform="translate(-160.836 -32.301)" fill="#1c75ba"/>
      <path id="Path_24" data-name="Path 24" d="M366.571,134.515a1.934,1.934,0,1,1-1.934-1.917,1.925,1.925,0,0,1,1.934,1.917" transform="translate(-92.18 -34.588)" fill="#1c75ba" fill-rule="evenodd"/>
      <path id="Path_25" data-name="Path 25" d="M552.645,134.515a1.934,1.934,0,1,1-1.934-1.917,1.925,1.925,0,0,1,1.934,1.917" transform="translate(-139.47 -34.588)" fill="#1c75ba" fill-rule="evenodd"/>
    </g>
  </g>
</svg>
